<svg xmlns="http://www.w3.org/2000/svg" xmlns:xlink="http://www.w3.org/1999/xlink" width="261" height="77.772" viewBox="0 0 261 77.772">
  <defs>
    <clipPath id="clip-path">
      <rect id="Rectangle_8408" data-name="Rectangle 8408" width="261" height="77.772" fill="none"/>
    </clipPath>
  </defs>
  <g id="Groupe_2205" data-name="Groupe 2205" transform="translate(0 0)">
    <g id="Groupe_2205-2" data-name="Groupe 2205" transform="translate(0 0)" clip-path="url(#clip-path)">
      <path id="Tracé_8724" data-name="Tracé 8724" d="M45.476,10.473l-6.67,26.42A6.307,6.307,0,0,1,32.8,41.785a6.09,6.09,0,0,1-1.613-.226.921.921,0,0,1-.539-.442,1.01,1.01,0,0,1-.09-.718L37.23,13.98a6.306,6.306,0,0,1,6-4.891,6,6,0,0,1,1.615.226.954.954,0,0,1,.627,1.158M20.5,41.785a6.04,6.04,0,0,1-1.61-.226.954.954,0,0,1-.631-1.16l6.67-26.42a6.3,6.3,0,0,1,6.008-4.891,6,6,0,0,1,1.613.226.955.955,0,0,1,.629,1.158L26.5,36.892A6.305,6.305,0,0,1,20.5,41.785m-12.3,0a6.057,6.057,0,0,1-1.613-.226.907.907,0,0,1-.541-.442,1,1,0,0,1-.09-.718l6.674-26.42a6.3,6.3,0,0,1,6-4.891,6.022,6.022,0,0,1,1.619.226.957.957,0,0,1,.627,1.158L14.2,36.892a6.3,6.3,0,0,1-6,4.893M12,.4a12.035,12.035,0,0,0-12,12V50.6H39.875a12.035,12.035,0,0,0,12-12V.4Z" transform="translate(0.001 0.38)" fill="#102543"/>
      <path id="Tracé_8725" data-name="Tracé 8725" d="M216.024.811V29.887h15.108v-6.4h-8.238V.811Zm-9.291,29.076h7.329L204,.811h-7.5L186.437,29.887h7.326l1.578-5.052h9.815Zm-9.57-10.8,3.087-9.68,3.085,9.68ZM167.682.811h-6.874V29.887h6.874V17.894h9.92V29.887h6.872V.811H177.6V12.032h-9.92Zm-11.29.693A17.676,17.676,0,0,0,153.183.367,13.169,13.169,0,0,0,150.08,0a12.753,12.753,0,0,0-5.292,1.137A13.952,13.952,0,0,0,140.351,4.3,15.4,15.4,0,0,0,137.3,9.121a16.16,16.16,0,0,0-1.139,6.15,16.257,16.257,0,0,0,1.154,6.189,16.055,16.055,0,0,0,3.071,4.9,13.625,13.625,0,0,0,4.414,3.2,12.576,12.576,0,0,0,5.241,1.137,13.158,13.158,0,0,0,2.7-.288,19.012,19.012,0,0,0,2.945-.907l.7-.271V20.284a7.685,7.685,0,0,1-5.924,3.085,6.429,6.429,0,0,1-2.806-.617,7.093,7.093,0,0,1-2.262-1.7,7.876,7.876,0,0,1-1.506-2.544,9.108,9.108,0,0,1-.543-3.2,9,9,0,0,1,.543-3.163,7.827,7.827,0,0,1,1.491-2.526,6.947,6.947,0,0,1,2.26-1.676,6.629,6.629,0,0,1,2.857-.619,7.125,7.125,0,0,1,5.891,3.2ZM133.466.811H118.423V29.887h15.042v-6.4H125.3V18.472h7.715v-6.4H125.3V7.212h8.17ZM108.291,17.97a7.242,7.242,0,0,0,4.3-2.795,9.144,9.144,0,0,0,1.454-5.381,10.848,10.848,0,0,0-.543-3.47,8.313,8.313,0,0,0-1.611-2.853,7.468,7.468,0,0,0-2.717-1.948,9.656,9.656,0,0,0-3.857-.712H94.619V29.887h6.874V18.7l6.553,11.183H116.6Zm-6.8-11.337h1.3a4.689,4.689,0,0,1,3.12.924A3.3,3.3,0,0,1,107,10.219a3.3,3.3,0,0,1-1.086,2.662,4.689,4.689,0,0,1-3.12.924h-1.3ZM85.33,29.887h7.327L82.6.811h-7.5L65.031,29.887h7.327l1.578-5.052h9.815Zm-9.569-10.8,3.083-9.68,3.085,9.68Zm-37.791,10.8L40.246,13.15l5.926,16.737H48.9L55.146,13.15l2.279,16.737H64.26L59.772.811h-6.8l-5.257,15.5L42.42.811h-6.8L31.132,29.887Z" transform="translate(29.457 0.002)" fill="#102543"/>
      <path id="Tracé_8726" data-name="Tracé 8726" d="M111.454,19.8a7.274,7.274,0,0,0-4.5-1.477,7.793,7.793,0,1,0,0,15.585,7.76,7.76,0,0,0,4.5-1.477V30.349a6.6,6.6,0,0,1-4.556,2,6.237,6.237,0,0,1-.039-12.471,6.451,6.451,0,0,1,4.595,2ZM96.807,18.58H95.131V33.643h1.676ZM85.838,27.03h.418l4.558,6.613h2.057l-4.8-6.753a3.935,3.935,0,0,0,3.776-4.157c0-3.4-2.657-4.153-5.516-4.153H84.161V33.643h1.678Zm0-6.9h.5c2.02,0,3.84.239,3.84,2.719,0,2.339-1.921,2.7-3.82,2.7h-.518Zm-7.174,0h3.676V18.58h-8.99v1.555h3.636V33.643h1.678ZM71.73,19.8a7.28,7.28,0,0,0-4.5-1.477,7.793,7.793,0,1,0,0,15.585,7.771,7.771,0,0,0,4.5-1.477V30.349a6.6,6.6,0,0,1-4.556,2,6.237,6.237,0,0,1-.041-12.471,6.455,6.455,0,0,1,4.6,2ZM49.471,33.643h7.81V32.086H51.147V26.17H57.1V24.613H51.147V20.135h6.134V18.58h-7.81ZM43.553,18.58H41.877V33.643H47.71V32.086H43.553ZM31.107,33.643h7.81V32.086H32.783V26.17h5.955V24.613H32.783V20.135h6.134V18.58h-7.81Z" transform="translate(29.434 17.335)" fill="#102543"/>
      <path id="Tracé_8727" data-name="Tracé 8727" d="M260.566,35.692a5.9,5.9,0,0,0-1.368-.559,5.311,5.311,0,0,0-1.368-.191,3.489,3.489,0,0,0-1.267.22,2.691,2.691,0,0,0-.958.621,2.762,2.762,0,0,0-.609.956,3.436,3.436,0,0,0-.216,1.246,2.749,2.749,0,0,0,.2,1.137,2.172,2.172,0,0,0,.539.742,2.711,2.711,0,0,0,.759.473c.284.119.574.226.87.325.249.09.463.171.638.245a1.91,1.91,0,0,1,.426.239.765.765,0,0,1,.234.282.87.87,0,0,1,.07.362.836.836,0,0,1-.274.613,1.148,1.148,0,0,1-.837.271,2.34,2.34,0,0,1-.993-.234,4.014,4.014,0,0,1-1.016-.71l-.983,1.938a5.144,5.144,0,0,0,3.1,1.043,4.316,4.316,0,0,0,1.444-.228,3.038,3.038,0,0,0,1.074-.638,2.7,2.7,0,0,0,.666-.987,3.452,3.452,0,0,0,.23-1.288,2.678,2.678,0,0,0-.522-1.713,3.516,3.516,0,0,0-1.641-1.049c-.187-.066-.376-.127-.566-.185a2.974,2.974,0,0,1-.514-.2,1.2,1.2,0,0,1-.37-.276.589.589,0,0,1-.14-.4.7.7,0,0,1,.28-.576,1.133,1.133,0,0,1,.726-.222,1.889,1.889,0,0,1,.724.156,2.781,2.781,0,0,1,.747.471Zm-20.649,8.76V38.8l4.229,5.656h2.279V35.2h-2.279v5.658L239.917,35.2h-2.291v9.252Zm-19.68-2.705a4.753,4.753,0,0,0,1.006,1.551,4.565,4.565,0,0,0,1.536,1.037,5.336,5.336,0,0,0,3.933,0,4.614,4.614,0,0,0,1.547-1.037,4.736,4.736,0,0,0,1.012-1.551,5.272,5.272,0,0,0,0-3.84,4.765,4.765,0,0,0-1.012-1.553,4.643,4.643,0,0,0-1.547-1.037,5.362,5.362,0,0,0-3.933,0,4.593,4.593,0,0,0-1.536,1.037,4.782,4.782,0,0,0-1.006,1.553,5.273,5.273,0,0,0,0,3.84m2.232-2.939a2.558,2.558,0,0,1,.537-.81,2.469,2.469,0,0,1,2.694-.535,2.508,2.508,0,0,1,1.339,1.345,2.6,2.6,0,0,1-.543,2.847,2.488,2.488,0,0,1-.8.533,2.454,2.454,0,0,1-2.694-.533,2.571,2.571,0,0,1-.736-1.829,2.573,2.573,0,0,1,.2-1.018m-12.878,5.644h2.291V35.2h-2.291Zm-7.559-7.215V35.2h-6.055v2.038h1.882v7.215h2.291V37.238Zm-13.219-1.816a6.076,6.076,0,0,0-1.068-.362,4.6,4.6,0,0,0-1.033-.117,4.415,4.415,0,0,0-1.765.362,4.619,4.619,0,0,0-1.477,1.006,4.833,4.833,0,0,0-1.018,1.534,5.233,5.233,0,0,0,.006,3.927,5.069,5.069,0,0,0,1.024,1.557,4.553,4.553,0,0,0,1.471,1.02,4.386,4.386,0,0,0,1.748.362,4.466,4.466,0,0,0,.9-.093,6.439,6.439,0,0,0,.981-.288l.234-.086V41.4a2.6,2.6,0,0,1-1.973.983,2.255,2.255,0,0,1-.936-.2,2.34,2.34,0,0,1-.753-.541,2.472,2.472,0,0,1-.5-.81,2.919,2.919,0,0,1,0-2.024,2.476,2.476,0,0,1,.5-.8,2.314,2.314,0,0,1,1.707-.73,2.4,2.4,0,0,1,1.962,1.018ZM174.277,35.2h-5.013v9.252h5.013V42.414h-2.723V40.821h2.571V38.783h-2.571V37.238h2.723Zm-19.912,9.252V38.8l4.229,5.656h2.279V35.2h-2.279v5.658L154.365,35.2h-2.293v9.252Zm-17.191,0V38.8l4.229,5.656h2.279V35.2H141.4v5.658L137.175,35.2h-2.291v9.252ZM117.5,41.747a4.779,4.779,0,0,0,1,1.551,4.554,4.554,0,0,0,1.538,1.037,5.331,5.331,0,0,0,3.931,0,4.642,4.642,0,0,0,1.549-1.037,4.731,4.731,0,0,0,1.01-1.551,5.272,5.272,0,0,0,0-3.84,4.76,4.76,0,0,0-1.01-1.553,4.672,4.672,0,0,0-1.549-1.037,5.357,5.357,0,0,0-3.931,0,4.583,4.583,0,0,0-1.538,1.037,4.809,4.809,0,0,0-1,1.553,5.246,5.246,0,0,0,0,3.84m2.23-2.939a2.558,2.558,0,0,1,.537-.81,2.469,2.469,0,0,1,2.694-.535,2.507,2.507,0,0,1,1.339,1.345,2.6,2.6,0,0,1-.543,2.847,2.488,2.488,0,0,1-.8.533,2.454,2.454,0,0,1-2.694-.533,2.571,2.571,0,0,1-.736-1.829,2.573,2.573,0,0,1,.2-1.018m-10.319-3.386a6.075,6.075,0,0,0-1.068-.362,4.6,4.6,0,0,0-1.033-.117,4.422,4.422,0,0,0-1.765.362,4.619,4.619,0,0,0-1.477,1.006,4.832,4.832,0,0,0-1.018,1.534,5.233,5.233,0,0,0,.006,3.927,5.069,5.069,0,0,0,1.024,1.557,4.553,4.553,0,0,0,1.471,1.02,4.386,4.386,0,0,0,1.748.362,4.467,4.467,0,0,0,.9-.093,6.439,6.439,0,0,0,.981-.288l.234-.086V41.4a2.6,2.6,0,0,1-1.973.983,2.239,2.239,0,0,1-.934-.2,2.327,2.327,0,0,1-.755-.541,2.472,2.472,0,0,1-.5-.81,2.92,2.92,0,0,1,0-2.024,2.477,2.477,0,0,1,.5-.8,2.314,2.314,0,0,1,1.707-.73,2.4,2.4,0,0,1,1.962,1.018Zm-32.591,9.03h3.39a3.865,3.865,0,0,0,1.7-.38,4.576,4.576,0,0,0,1.38-1.02,4.784,4.784,0,0,0,1.255-3.227,4.663,4.663,0,0,0-.339-1.759,4.735,4.735,0,0,0-.928-1.473,4.584,4.584,0,0,0-1.38-1.012,3.814,3.814,0,0,0-1.687-.381h-3.39Zm2.291-7.215h.525a2.707,2.707,0,0,1,1.053.2,2.246,2.246,0,0,1,.788.539,2.4,2.4,0,0,1,.5.823,2.963,2.963,0,0,1,.175,1.03,3.053,3.053,0,0,1-.169,1.037,2.33,2.33,0,0,1-.49.815,2.276,2.276,0,0,1-.788.541,2.739,2.739,0,0,1-1.065.195h-.525ZM61.917,44.452V38.8l4.231,5.656h2.279V35.2H66.148v5.658L61.917,35.2H59.628v9.252ZM42.239,41.747A4.752,4.752,0,0,0,43.245,43.3a4.565,4.565,0,0,0,1.536,1.037,5.336,5.336,0,0,0,3.933,0A4.614,4.614,0,0,0,50.261,43.3a4.731,4.731,0,0,0,1.01-1.551,5.246,5.246,0,0,0,0-3.84,4.76,4.76,0,0,0-1.01-1.553,4.643,4.643,0,0,0-1.547-1.037,5.362,5.362,0,0,0-3.933,0,4.594,4.594,0,0,0-1.536,1.037,4.782,4.782,0,0,0-1.006,1.553,5.272,5.272,0,0,0,0,3.84m2.232-2.939a2.558,2.558,0,0,1,.537-.81,2.427,2.427,0,0,1,.79-.535,2.493,2.493,0,0,1,1.9,0,2.525,2.525,0,0,1,1.339,1.345,2.6,2.6,0,0,1-.545,2.847,2.5,2.5,0,0,1-.794.533,2.454,2.454,0,0,1-2.694-.533,2.571,2.571,0,0,1-.736-1.829,2.573,2.573,0,0,1,.2-1.018M30.038,44.452h2.291V40.011L35.553,35.2H32.821L31.2,37.728,29.559,35.2H26.825l3.213,4.811ZM19.719,35.2H14.708v9.252h5.011V42.414H17V40.821h2.569V38.783H17V37.238h2.721ZM.076,44.452h3.68a4.293,4.293,0,0,0,1.263-.171,2.551,2.551,0,0,0,.952-.516,2.374,2.374,0,0,0,.609-.847A2.9,2.9,0,0,0,6.8,41.764,3.185,3.185,0,0,0,6.7,40.98a1.91,1.91,0,0,0-.311-.664,1.851,1.851,0,0,0-.561-.5,2.714,2.714,0,0,0-.835-.3,2.059,2.059,0,0,0,.73-.778,2.5,2.5,0,0,0,.239-1.16,2.36,2.36,0,0,0-.631-1.767A2.546,2.546,0,0,0,3.488,35.2H.076Zm2.291-7.411h.42q1.074,0,1.074.9t-1.074.9h-.42Zm0,3.583h.5a2.457,2.457,0,0,1,1.24.234.936.936,0,0,1,0,1.5,2.457,2.457,0,0,1-1.24.234h-.5Z" transform="translate(0.072 33.064)" fill="#102543"/>
    </g>
  </g>
</svg>
